<svg width="165" height="165" viewBox="0 0 165 165" fill="none" xmlns="http://www.w3.org/2000/svg">
<path d="M88.7942 136.207C86.3777 139.906 80.9207 140.439 76.6777 137.444L28.7675 103.702C27.2041 102.647 26.1083 101.03 25.7088 99.1862C25.3093 97.343 25.6369 95.4166 26.6232 93.809L68.7701 29.4229C69.9329 27.8397 71.6008 26.7004 73.4984 26.1929C75.396 25.6855 77.4099 25.8404 79.2076 26.6319L133.596 50.5597C138.406 52.6813 140.403 57.3671 138.009 61.1224L88.7942 136.207Z" fill="#FFBC1F"/>
<path d="M81.1701 131.828L31.785 98.0637L75.2253 31.7148L130.26 56.8453L81.1701 131.828Z" fill="white"/>
<path d="M112.437 52.1369C112.014 52.6682 111.421 53.0374 110.758 53.1821C110.094 53.3268 109.401 53.238 108.795 52.931L88.0227 43.1738C87.7537 43.0758 87.5101 42.9187 87.3098 42.7142C87.1095 42.5096 86.9575 42.2628 86.8651 41.9919C86.7726 41.721 86.7419 41.4328 86.7754 41.1484C86.8088 40.8641 86.9055 40.5909 87.0583 40.3488L90.3143 35.3681C90.699 34.8586 91.2473 34.497 91.8671 34.3441C92.4869 34.1912 93.1404 34.2563 93.7179 34.5285L114.763 43.8773C115.055 43.9709 115.322 44.1291 115.545 44.3401C115.767 44.5511 115.939 44.8095 116.048 45.0962C116.157 45.3828 116.2 45.6903 116.174 45.9958C116.148 46.3014 116.054 46.5971 115.898 46.8611L112.437 52.1369Z" fill="#8D93A5"/>
<path d="M108.466 45.6696L95.0792 39.5884L98.3806 34.5396C98.7728 34.0398 99.3202 33.6848 99.9365 33.5307C100.553 33.3766 101.203 33.4322 101.784 33.6887L110.69 37.5462C110.979 37.6345 111.244 37.7873 111.466 37.9931C111.687 38.1989 111.859 38.4523 111.968 38.7342C112.078 39.016 112.121 39.319 112.096 39.6203C112.072 39.9216 111.979 40.2132 111.825 40.4733L108.466 45.6696Z" fill="#2D3039"/>
<path d="M109.442 73.0237L81.6582 58.7623L83.1104 56.5386L110.997 70.6525L109.442 73.0237Z" fill="#3DB887"/>
<path d="M72.8995 57.3102C72.8346 57.3523 72.7609 57.3791 72.6841 57.3886C72.6072 57.398 72.5292 57.3898 72.456 57.3647C72.3827 57.3395 72.3162 57.2981 72.2613 57.2434C72.2065 57.1888 72.1648 57.1223 72.1394 57.0492L70.4377 52.0117C70.4157 51.9362 70.4104 51.8568 70.4221 51.7791C70.4338 51.7013 70.4621 51.627 70.5052 51.5612C70.5483 51.4955 70.6052 51.4398 70.6719 51.3981C70.7385 51.3564 70.8134 51.3297 70.8914 51.3197L71.5381 51.1835C71.7063 51.1481 71.8815 51.1717 72.0344 51.2502C72.1873 51.3287 72.3084 51.4574 72.3776 51.6147L73.2853 54.2469C73.3093 54.3197 73.3497 54.386 73.4034 54.4407C73.4572 54.4955 73.5228 54.537 73.5952 54.5623C73.6676 54.5875 73.7449 54.5958 73.821 54.5863C73.8971 54.5769 73.97 54.55 74.034 54.5078L79.1847 51.6033C79.3447 51.5223 79.5269 51.4961 79.7033 51.5289C79.8796 51.5618 80.0403 51.6517 80.1604 51.7849L80.5688 52.2727C80.623 52.332 80.6628 52.403 80.6851 52.4801C80.7074 52.5573 80.7115 52.6386 80.6973 52.7177C80.683 52.7967 80.6507 52.8714 80.6028 52.9359C80.5549 53.0004 80.4928 53.053 80.4213 53.0896L72.8995 57.3102Z" fill="#3DB887"/>
<path d="M100.355 86.8994L73.1155 71.8098L74.579 69.5747L101.909 84.5282L100.355 86.8994Z" fill="#BABEC9"/>
<path d="M67.8966 72.3316L59.8643 67.8161L64.4931 60.7251L72.6275 65.1045L67.8966 72.3316Z" fill="#BABEC9"/>
<path d="M91.2676 100.786L64.584 84.8459L66.0362 82.6108L92.8219 98.4152L91.2676 100.786Z" fill="#BABEC9"/>
<path d="M59.4334 85.2659L51.5599 80.4894L56.2001 73.3984L64.1756 78.0388L59.4334 85.2659Z" fill="#BABEC9"/>
<path d="M82.1802 114.662L56.0525 97.8819L57.5047 95.6582L83.7345 112.291L82.1802 114.662Z" fill="#BABEC9"/>
<path d="M50.9698 98.1882L43.2551 93.1621L47.9066 86.0825L55.712 90.9611L50.9698 98.1882Z" fill="#BABEC9"/>
</svg>
